<?xml version="1.0" standalone="no"?>
<!DOCTYPE svg PUBLIC "-//W3C//DTD SVG 20010904//EN"
 "http://www.w3.org/TR/2001/REC-SVG-20010904/DTD/svg10.dtd">
<svg version="1.0" xmlns="http://www.w3.org/2000/svg"
 width="512.000000pt" height="512.000000pt" viewBox="0 0 512.000000 512.000000"
 preserveAspectRatio="xMidYMid meet">

<g transform="translate(0.000000,512.000000) scale(0.100000,-0.100000)"
fill="#000000" stroke="none">
<path d="M2444 5101 c-244 -43 -444 -145 -626 -319 -177 -169 -288 -365 -342
-607 l-23 -100 -359 -5 c-350 -5 -360 -6 -402 -28 -62 -33 -118 -96 -142 -158
-20 -55 -20 -61 -18 -1862 l3 -1807 24 -47 c29 -57 81 -109 141 -140 l45 -23
1815 0 1815 0 49 25 c27 14 68 46 91 72 81 91 75 -75 75 1934 0 1781 0 1794
-20 1848 -26 67 -85 130 -153 162 -51 23 -58 24 -313 24 l-262 0 -11 65 c-17
99 -66 239 -118 336 -245 466 -757 720 -1269 630z m315 -271 c319 -40 591
-240 726 -533 32 -69 65 -177 65 -211 0 -14 -29 -16 -274 -16 l-274 0 15 -57
c45 -171 -43 -356 -205 -435 -61 -30 -75 -33 -162 -33 -83 0 -103 4 -156 28
-74 34 -152 111 -191 187 -25 49 -28 66 -28 150 0 52 4 110 9 128 l9 32 -277
0 -276 0 6 28 c41 188 122 337 251 465 89 88 149 130 259 183 165 80 324 106
503 84z m-1289 -1152 c30 -123 47 -173 95 -273 108 -226 256 -391 467 -518
545 -329 1260 -168 1614 364 88 132 148 273 181 424 l9 40 114 3 c128 4 174
-6 220 -44 71 -60 65 78 68 -1609 2 -1076 0 -1533 -8 -1564 -15 -59 -43 -97
-93 -124 l-42 -22 -1535 0 -1535 0 -42 22 c-50 27 -78 65 -93 124 -8 31 -10
488 -8 1564 3 1666 -1 1545 60 1602 50 47 79 52 305 53 l212 0 11 -42z"/>
<path d="M2595 4720 c-43 -47 -7 -124 57 -122 61 2 91 79 48 122 -26 26 -81
26 -105 0z"/>
<path d="M2067 4502 c-23 -25 -22 -85 1 -105 25 -23 85 -22 105 1 23 25 22 85
-1 105 -25 23 -85 22 -105 -1z"/>
<path d="M3125 4500 c-42 -46 -10 -120 52 -120 42 0 73 30 73 70 0 62 -84 95
-125 50z"/>
<path d="M2615 4461 c-11 -5 -29 -19 -40 -31 -18 -20 -20 -39 -23 -177 l-4
-155 -39 -35 c-85 -77 -87 -206 -4 -289 68 -68 147 -81 232 -39 72 36 106 89
111 171 4 55 1 69 -22 108 -14 25 -40 54 -56 66 l-30 21 0 154 c0 145 -1 155
-22 179 -25 28 -72 40 -103 27z"/>
<path d="M1295 2501 c-51 -23 -111 -89 -124 -138 -7 -25 -11 -275 -11 -738 l0
-700 24 -51 c26 -56 74 -98 133 -120 29 -10 132 -13 449 -14 469 0 483 2 553
71 73 74 72 54 69 845 -3 694 -3 699 -25 739 -27 51 -68 90 -115 109 -32 14
-102 16 -475 16 -402 0 -441 -2 -478 -19z"/>
<path d="M2880 2504 c-45 -20 -86 -59 -113 -109 -22 -40 -22 -41 -22 -760 0
-690 1 -722 19 -759 29 -59 83 -104 142 -122 44 -12 120 -14 475 -12 412 3
425 4 464 25 51 27 79 57 104 113 20 44 21 62 21 755 0 668 -2 712 -19 750
-23 51 -65 93 -116 116 -37 17 -74 19 -480 18 -371 0 -446 -2 -475 -15z"/>
</g>
</svg>
