<?xml version="1.0" standalone="no"?>
<!DOCTYPE svg PUBLIC "-//W3C//DTD SVG 20010904//EN"
 "http://www.w3.org/TR/2001/REC-SVG-20010904/DTD/svg10.dtd">
<svg version="1.0" xmlns="http://www.w3.org/2000/svg"
 width="225.000000pt" height="225.000000pt" viewBox="0 0 225.000000 225.000000"
 preserveAspectRatio="xMidYMid meet">

<g transform="translate(0.000000,225.000000) scale(0.100000,-0.100000)"
fill="#000000" stroke="none">
<path d="M162 2103 c-70 -34 -131 -136 -153 -255 -32 -176 66 -368 239 -468
l60 -35 -19 -37 c-23 -45 -49 -150 -49 -198 0 -53 33 -116 71 -135 41 -22 105
-14 177 21 29 14 55 24 56 23 2 -2 15 -30 29 -62 15 -33 47 -91 71 -130 74
-119 89 -161 91 -257 1 -89 14 -129 59 -180 13 -14 28 -43 34 -66 18 -61 80
-126 154 -159 79 -36 183 -40 268 -11 71 25 153 105 171 167 7 24 22 55 35 69
45 51 58 91 59 180 2 96 17 138 91 257 24 39 56 97 71 130 14 32 27 60 29 62
1 1 27 -9 56 -23 72 -35 136 -43 177 -21 38 19 70 82 71 135 0 43 -24 138 -49
194 l-18 41 60 35 c173 101 270 291 238 468 -32 178 -152 303 -251 262 -43
-18 -61 -53 -72 -138 -5 -42 -18 -97 -30 -124 -37 -87 -136 -154 -264 -178
-60 -12 -63 -11 -135 23 -41 19 -103 42 -139 50 -201 48 -459 23 -612 -60 -45
-24 -48 -25 -117 -13 -57 11 -73 11 -86 0 -34 -28 -13 -65 43 -76 18 -4 32 -8
32 -10 0 -2 -13 -24 -29 -49 -16 -26 -35 -69 -42 -97 -8 -28 -20 -53 -27 -56
-20 -7 -125 24 -194 59 -218 110 -293 352 -167 535 52 77 99 66 99 -24 0 -55
14 -82 44 -82 38 0 47 20 40 91 -8 80 -29 126 -65 144 -36 19 -66 19 -107 -2z
m1918 -103 c56 -59 75 -116 75 -220 0 -85 -3 -101 -29 -153 -54 -105 -172
-194 -314 -233 -33 -9 -66 -14 -74 -12 -7 3 -19 28 -27 56 -7 28 -26 71 -42
97 -17 26 -29 48 -27 50 2 1 26 8 53 14 134 33 250 134 285 248 11 36 20 83
20 105 0 79 32 99 80 48z m-772 -336 c157 -32 278 -120 317 -231 34 -98 29
-282 -11 -405 -8 -26 -38 -84 -66 -130 -27 -45 -61 -104 -74 -130 l-24 -47
-52 24 c-51 24 -61 25 -273 25 -212 0 -222 -1 -273 -25 l-52 -24 -24 47 c-13
26 -47 85 -74 130 -28 46 -58 104 -66 130 -40 123 -45 307 -11 405 38 108 160
198 310 230 94 21 277 21 373 1z m-839 -370 c2 -2 -8 -17 -23 -34 -29 -35 -32
-50 -14 -68 17 -17 48 -15 70 5 17 15 18 14 18 -25 0 -23 1 -45 2 -49 1 -5
-25 -22 -58 -40 -65 -36 -118 -43 -128 -17 -16 42 4 156 40 226 13 25 16 26
51 15 21 -6 40 -12 42 -13z m1431 -72 c20 -64 25 -126 14 -156 -10 -26 -63
-19 -128 17 -33 18 -59 35 -58 40 1 4 2 26 2 49 0 39 1 40 18 25 22 -20 53
-22 70 -5 18 18 15 33 -14 68 -30 35 -31 33 16 47 44 13 53 3 80 -85z m-530
-557 c38 -20 60 -63 60 -117 0 -124 -135 -177 -248 -98 -23 17 -49 30 -57 30
-8 0 -34 -13 -57 -30 -113 -79 -248 -26 -248 98 0 53 22 97 58 116 40 22 450
23 492 1z m-204 -307 c23 -13 62 -24 101 -27 l65 -6 -23 -29 c-34 -43 -113
-76 -184 -76 -71 0 -150 33 -184 76 l-23 29 64 6 c40 3 78 13 99 26 43 27 41
27 85 1z"/>
<path d="M907 1122 c-10 -10 -17 -24 -17 -30 0 -15 29 -42 45 -42 7 0 21 7 29
16 9 8 16 22 16 29 0 17 -27 45 -44 45 -7 0 -20 -8 -29 -18z"/>
<path d="M1286 1124 c-9 -8 -16 -22 -16 -29 0 -18 27 -45 45 -45 17 0 45 27
45 44 0 15 -32 46 -48 46 -6 0 -18 -7 -26 -16z"/>
<path d="M932 578 c-18 -18 -14 -56 7 -68 26 -14 50 -3 57 26 11 42 -34 72
-64 42z"/>
<path d="M1260 575 c-15 -18 -6 -61 16 -69 24 -9 54 12 54 37 0 43 -44 63 -70
32z"/>
<path d="M366 1767 c-38 -27 2 -95 42 -71 24 16 28 55 6 71 -10 7 -21 13 -24
13 -3 0 -14 -6 -24 -13z"/>
</g>
</svg>
