<?xml version="1.0" standalone="no"?>
<!DOCTYPE svg PUBLIC "-//W3C//DTD SVG 20010904//EN"
 "http://www.w3.org/TR/2001/REC-SVG-20010904/DTD/svg10.dtd">
<svg version="1.0" xmlns="http://www.w3.org/2000/svg"
 width="512.000000pt" height="512.000000pt" viewBox="0 0 512.000000 512.000000"
 preserveAspectRatio="xMidYMid meet">

<g transform="translate(0.000000,512.000000) scale(0.100000,-0.100000)"
fill="#000000" stroke="none">
<path d="M2385 3990 c-774 -79 -1501 -472 -2222 -1202 -163 -165 -174 -183
-158 -266 6 -31 33 -63 158 -190 993 -1005 2043 -1391 3076 -1133 527 132
1038 430 1490 867 239 231 391 423 391 493 -1 67 -96 195 -310 414 -478 492
-1044 827 -1625 962 -221 51 -586 76 -800 55z m469 -325 c305 -36 564 -117
861 -269 230 -117 512 -315 715 -501 91 -84 320 -323 320 -334 0 -5 -51 -63
-112 -130 -296 -319 -626 -565 -993 -742 -741 -357 -1504 -326 -2261 92 -297
164 -698 471 -939 719 l-60 62 130 125 c286 275 615 518 917 678 473 250 964
354 1422 300z"/>
<path d="M2378 3501 c-115 -25 -148 -37 -242 -83 -321 -157 -536 -501 -536
-858 0 -230 99 -480 259 -653 118 -128 303 -236 476 -279 127 -32 323 -32 450
0 363 91 640 381 714 749 27 128 27 238 0 366 -62 309 -266 564 -554 695 -164
74 -397 100 -567 63z m316 -316 c183 -39 352 -170 434 -336 95 -193 95 -385 0
-578 -72 -146 -204 -260 -370 -318 -64 -23 -89 -27 -198 -27 -109 0 -134 4
-198 27 -105 37 -176 82 -257 162 -247 245 -245 646 5 895 155 156 371 220
584 175z"/>
<path d="M2560 2881 l0 -159 37 -7 c25 -4 50 -20 75 -46 65 -68 64 -153 -2
-219 -43 -43 -87 -56 -146 -46 -47 9 -111 73 -120 120 l-6 36 -160 0 -160 0 6
-47 c12 -84 34 -147 74 -209 167 -258 521 -297 738 -80 188 189 189 483 1 670
-72 73 -142 112 -236 132 -110 23 -101 37 -101 -145z"/>
</g>
</svg>
