<?xml version="1.0" standalone="no"?>
<!DOCTYPE svg PUBLIC "-//W3C//DTD SVG 20010904//EN"
 "http://www.w3.org/TR/2001/REC-SVG-20010904/DTD/svg10.dtd">
<svg version="1.0" xmlns="http://www.w3.org/2000/svg"
 width="512.000000pt" height="512.000000pt" viewBox="0 0 512.000000 512.000000"
 preserveAspectRatio="xMidYMid meet">

<g transform="translate(0.000000,512.000000) scale(0.100000,-0.100000)"
fill="#000000" stroke="none">
<path d="M995 5101 c-22 -10 -52 -31 -67 -47 -52 -56 -58 -87 -58 -292 l0
-189 -72 -5 c-112 -7 -198 -62 -244 -154 -18 -37 -19 -67 -22 -486 -3 -439 -2
-449 19 -498 24 -56 90 -122 146 -145 21 -9 68 -19 106 -22 l67 -6 0 -1546 c0
-1483 1 -1548 19 -1586 23 -49 64 -89 113 -109 33 -14 222 -16 1731 -16 l1693
0 51 25 c32 16 61 41 79 67 l29 41 3 487 c2 479 2 487 -18 505 -28 25 -76 23
-103 -4 -22 -21 -22 -23 -25 -478 -2 -405 -4 -459 -19 -475 -15 -17 -92 -18
-1690 -18 -1660 0 -1673 0 -1693 20 -20 20 -20 33 -20 1760 l0 1740 175 0
c173 0 176 0 200 25 14 13 25 36 25 50 0 14 -11 37 -25 50 l-24 25 -299 0
c-228 0 -310 -3 -345 -14 l-47 -14 0 274 0 274 34 38 34 37 642 0 642 0 34
-37 34 -38 0 -216 c0 -307 2 -304 -264 -304 -164 0 -167 0 -191 -25 -32 -31
-32 -69 0 -101 l26 -26 192 4 c191 3 192 3 245 32 30 17 67 47 83 67 55 70 60
102 57 365 -3 213 -5 243 -22 278 -25 50 -75 100 -129 128 -42 23 -44 23 -559
26 l-518 3 0 179 c0 167 1 181 20 200 20 20 33 20 1155 20 802 0 1150 -3 1187
-11 149 -32 282 -153 323 -294 8 -27 19 -103 23 -167 7 -97 12 -122 32 -151
48 -70 112 -97 230 -97 41 0 95 -5 119 -11 121 -28 237 -121 294 -238 l32 -66
5 -1271 c5 -1233 6 -1273 24 -1293 25 -27 79 -28 106 -1 20 20 20 33 20 1329
0 1435 2 1388 -60 1573 -63 187 -156 336 -304 484 -150 150 -307 246 -506 309
-177 55 -172 55 -1480 55 -1152 0 -1207 -1 -1245 -19z m2863 -256 c111 -57
201 -125 287 -216 74 -79 162 -208 200 -293 l24 -54 -55 33 c-89 54 -166 76
-284 82 -146 7 -146 7 -154 138 -9 127 -25 186 -76 283 -22 39 -37 72 -34 72
3 0 45 -20 92 -45z m-2988 -1305 l0 -130 -40 0 c-91 0 -150 51 -150 129 0 79
57 131 143 131 l47 0 0 -130z"/>
<path d="M1353 3295 c-27 -16 -49 -40 -62 -68 -21 -43 -21 -45 -21 -1368 0
-1271 1 -1326 19 -1359 10 -19 35 -48 55 -65 l38 -30 1336 -3 1335 -2 44 21
c29 14 52 35 68 64 l25 42 -2 1346 c-3 1341 -3 1346 -24 1373 -11 15 -33 37
-48 48 -27 21 -32 21 -1374 23 l-1347 3 -42 -25z m407 -295 l0 -170 -170 0
-170 0 0 163 c0 90 3 167 7 170 3 4 80 7 170 7 l163 0 0 -170z m760 0 l0 -170
-305 0 -305 0 0 170 0 170 305 0 305 0 0 -170z m760 0 l0 -170 -115 0 c-110 0
-117 -1 -140 -25 -14 -13 -25 -36 -25 -50 0 -14 11 -37 25 -50 23 -24 30 -25
140 -25 l115 0 0 -155 0 -155 -302 2 -303 3 -3 153 -3 152 41 0 c30 0 47 7 65
25 51 51 13 125 -65 125 l-40 0 0 170 0 170 305 0 305 0 0 -170z m760 0 l0
-170 -305 0 -305 0 0 170 0 170 305 0 305 0 0 -170z m-2280 -475 l0 -155 -170
0 -170 0 0 155 0 155 170 0 170 0 0 -155z m760 0 l0 -155 -302 2 -303 3 -3
153 -3 152 306 0 305 0 0 -155z m1520 0 l0 -155 -302 2 -303 3 -3 153 -3 152
306 0 305 0 0 -155z m-2280 -455 l0 -150 -170 0 -170 0 0 150 0 150 170 0 170
0 0 -150z m760 0 l0 -150 -305 0 -305 0 0 150 0 150 305 0 305 0 0 -150z m760
0 l0 -150 -305 0 -305 0 0 150 0 150 305 0 305 0 0 -150z m760 0 l0 -150 -305
0 -305 0 0 150 0 150 305 0 305 0 0 -150z m-2280 -455 l0 -155 -170 0 -170 0
0 155 0 155 170 0 170 0 0 -155z m760 0 l0 -155 -305 0 -305 0 0 155 0 155
305 0 305 0 0 -155z m760 0 l0 -155 -302 2 -303 3 -3 140 c-1 76 0 145 2 152
4 10 69 13 306 13 l300 0 0 -155z m760 0 l0 -155 -302 2 -303 3 -3 140 c-1 76
0 145 2 152 4 10 69 13 306 13 l300 0 0 -155z m-2280 -455 l0 -150 -170 0
-170 0 0 150 0 150 170 0 170 0 0 -150z m760 0 l0 -150 -305 0 -305 0 0 150 0
150 305 0 305 0 0 -150z m760 0 l0 -150 -305 0 -305 0 0 150 0 150 305 0 305
0 0 -150z m760 0 l0 -150 -305 0 -305 0 0 150 0 150 305 0 305 0 0 -150z
m-2280 -455 l0 -155 -167 2 -168 3 -3 153 -3 152 171 0 170 0 0 -155z m760 0
l0 -155 -305 0 -305 0 0 148 c0 82 3 152 7 155 3 4 141 7 305 7 l298 0 0 -155z
m760 0 l0 -155 -305 0 -305 0 0 148 c0 82 3 152 7 155 3 4 141 7 305 7 l298 0
0 -155z m758 3 l-3 -153 -302 -3 -303 -2 0 148 c0 82 3 152 7 155 3 4 141 7
305 7 l299 0 -3 -152z"/>
</g>
</svg>
