<?xml version="1.0" standalone="no"?>
<!DOCTYPE svg PUBLIC "-//W3C//DTD SVG 20010904//EN"
 "http://www.w3.org/TR/2001/REC-SVG-20010904/DTD/svg10.dtd">
<svg version="1.0" xmlns="http://www.w3.org/2000/svg"
 width="626.000000pt" height="626.000000pt" viewBox="0 0 626.000000 626.000000"
 preserveAspectRatio="xMidYMid meet">

<g transform="translate(0.000000,626.000000) scale(0.100000,-0.100000)"
fill="#000000" stroke="none">
<path d="M3595 5223 c-11 -2 -67 -20 -124 -39 -91 -31 -113 -35 -187 -32 -46
2 -84 2 -84 0 0 -2 19 -12 43 -22 70 -32 160 -27 270 16 113 43 188 48 263 14
49 -21 49 -21 25 -34 l-25 -14 32 -7 c37 -8 53 -25 23 -25 -28 0 -37 -20 -9
-20 20 -1 19 -3 -12 -20 l-35 -19 38 -1 c36 0 55 -20 20 -20 -10 0 -24 -4 -31
-8 -7 -5 14 -8 48 -8 33 1 60 4 60 8 0 4 -10 14 -22 23 -18 12 -20 17 -9 24 7
5 11 17 7 27 -13 42 4 48 136 41 196 -10 363 -54 528 -138 101 -51 194 -126
230 -184 21 -33 21 -37 6 -60 -23 -35 -60 -32 -177 15 -130 52 -204 63 -343
49 -121 -13 -197 -3 -238 31 -22 18 -22 19 -3 20 20 1 20 1 1 15 -11 8 -28 15
-38 15 -10 0 -18 7 -18 15 0 11 -11 15 -42 14 -35 0 -39 -2 -22 -9 35 -14 54
-50 54 -101 0 -52 29 -99 61 -99 22 0 24 -11 7 -28 -29 -29 -95 -1 -128 53
-29 47 -35 39 -14 -16 23 -62 28 -112 14 -153 -12 -36 -30 -49 -30 -22 0 8
-11 28 -24 43 l-25 28 14 -42 c23 -67 12 -76 -45 -38 -101 68 -227 52 -331
-42 -22 -20 -45 -46 -51 -57 -6 -12 11 -1 38 24 70 65 134 94 209 94 67 -1
112 -19 144 -60 33 -42 28 -56 -14 -38 -19 7 -45 14 -57 14 -20 0 -19 -3 10
-17 18 -9 38 -25 43 -36 8 -14 8 -18 0 -12 -7 3 -26 11 -44 16 l-32 9 30 -25
c17 -13 25 -24 18 -25 -6 0 -14 4 -18 9 -10 16 -89 23 -132 12 -81 -22 -201
-167 -191 -230 3 -20 5 -20 32 -6 38 20 65 19 120 -6 54 -24 87 -20 141 17 20
13 38 24 41 24 13 0 -32 -59 -56 -74 -36 -21 -54 -20 -124 5 -41 14 -68 18
-90 12 -17 -4 -38 -8 -46 -8 -8 0 -21 -13 -28 -28 -12 -25 -12 -31 3 -47 9
-10 38 -21 66 -25 92 -13 147 -74 156 -174 l4 -46 -31 62 c-22 45 -44 71 -75
93 -62 43 -66 37 -13 -17 57 -59 68 -81 77 -149 9 -63 1 -70 -18 -16 -23 64
-51 101 -97 128 -25 15 -47 25 -49 23 -2 -2 2 -38 8 -80 15 -110 -17 -249 -39
-164 -9 37 -21 31 -28 -15 -8 -51 -45 -150 -56 -150 -4 0 -11 20 -14 45 -11
72 -23 61 -30 -28 -7 -83 -31 -177 -46 -177 -4 0 -10 17 -14 39 -3 21 -15 49
-25 62 l-19 24 9 -50 c10 -50 4 -137 -11 -164 -5 -10 -10 1 -15 30 -4 24 -13
55 -20 68 -10 20 -12 1 -8 -115 4 -106 1 -155 -11 -207 -35 -150 -127 -267
-208 -267 -13 0 -57 16 -98 36 -41 20 -102 42 -135 48 -59 12 -60 14 -63 47
-4 51 13 87 53 110 19 12 35 24 35 27 0 4 -33 7 -73 7 -79 0 -124 19 -159 66
-67 90 7 234 116 227 49 -4 58 -23 15 -32 -17 -3 -46 -21 -65 -40 -29 -29 -34
-41 -34 -79 0 -88 73 -132 174 -103 83 24 118 74 118 168 0 79 -33 130 -105
164 -46 21 -67 24 -172 24 -66 1 -142 5 -170 11 -163 31 -222 22 -279 -41 -65
-72 -101 -255 -57 -294 45 -40 98 28 88 113 l-5 46 20 -25 c27 -33 19 -86 -21
-149 -36 -55 -41 -111 -16 -182 30 -84 23 -82 250 -74 216 7 323 -1 421 -35
84 -29 90 -37 58 -71 -43 -45 -100 -62 -193 -58 -71 4 -84 8 -127 38 -47 33
-47 33 -30 6 10 -15 15 -29 12 -32 -3 -4 -32 -6 -63 -7 -63 0 -109 18 -156 62
-22 21 -36 26 -72 23 -122 -7 -204 105 -206 285 -1 64 -2 66 -11 34 -15 -51
-5 -188 16 -230 42 -82 104 -120 194 -120 52 0 61 -3 88 -31 60 -64 152 -89
241 -66 l32 8 24 -78 c37 -115 54 -209 72 -388 16 -165 63 -527 69 -532 2 -2
6 11 9 29 51 287 57 337 56 446 0 64 -4 140 -8 167 -6 43 -8 32 -14 -75 -8
-120 -28 -265 -39 -276 -3 -3 -12 26 -19 63 -20 98 -17 337 4 448 21 104 45
185 57 185 9 0 45 -170 60 -283 13 -98 13 -351 0 -517 -5 -69 -12 -156 -14
-195 l-5 -70 14 80 c44 244 81 745 72 958 l-6 129 47 -6 c90 -12 147 48 204
214 27 80 34 59 14 -41 -16 -73 -125 -368 -137 -369 -4 0 -9 18 -12 41 -5 40
-49 118 -55 99 -2 -6 2 -34 8 -62 21 -95 23 -330 5 -561 -9 -121 -15 -221 -12
-223 2 -2 7 28 11 68 11 118 55 417 73 488 27 107 165 432 178 418 2 -2 -7
-42 -20 -88 -55 -191 -78 -353 -89 -625 l-6 -120 20 125 c48 309 101 520 174
694 46 108 114 241 121 234 2 -2 -14 -64 -36 -137 -21 -74 -39 -137 -39 -140
1 -15 150 318 209 467 15 36 31 42 31 12 0 -39 -72 -298 -140 -500 -96 -287
-122 -462 -118 -800 1 -102 3 -160 5 -130 7 115 44 459 59 550 9 52 38 163 65
245 43 131 65 211 108 395 10 43 10 42 5 -20 -3 -36 -3 -63 -1 -60 3 3 19 91
37 195 17 105 33 195 36 200 5 12 -5 -315 -11 -365 -4 -32 -4 -32 6 5 26 103
41 226 49 399 6 122 13 193 21 200 9 8 10 4 6 -19 -3 -16 -2 -77 3 -135 10
-127 -3 -297 -30 -398 -11 -40 -49 -141 -84 -225 -66 -157 -102 -264 -92 -274
3 -4 6 -1 6 5 0 7 29 74 63 150 135 292 158 386 167 697 7 211 10 251 32 330
43 153 100 340 108 348 12 13 -26 -211 -50 -298 -18 -67 -23 -121 -30 -330
-13 -362 -36 -486 -189 -1004 -33 -113 -59 -207 -57 -209 5 -5 98 234 130 335
88 282 115 455 226 1472 11 101 31 231 45 290 30 124 90 254 120 260 20 3 19
3 -1 -20 -27 -31 -39 -54 -52 -104 -11 -39 -11 -40 6 -15 24 36 69 80 81 80
18 0 13 -19 -16 -58 -23 -31 -17 -27 33 19 83 78 134 103 211 103 57 1 64 -2
97 -33 38 -37 60 -93 71 -180 3 -30 15 -71 26 -92 22 -43 24 -87 6 -109 -7 -8
-31 -27 -54 -43 -31 -19 -51 -44 -74 -90 -17 -34 -43 -77 -56 -96 -50 -66
-157 -89 -239 -52 -82 37 -107 99 -108 264 -1 144 -14 97 -26 -93 -10 -148
-33 -306 -70 -485 -14 -66 -23 -150 -25 -245 l-4 -145 13 85 c7 47 27 128 44
180 17 52 35 111 41 130 18 60 5 -219 -24 -494 -14 -137 -24 -254 -22 -260 6
-17 46 206 62 344 14 123 44 465 46 518 l0 27 10 -24 c17 -44 11 -364 -11
-551 -31 -269 -31 -283 -5 -163 28 130 51 323 61 506 5 93 10 125 18 117 7 -7
11 -81 11 -223 -1 -359 -65 -747 -185 -1130 -64 -206 -81 -300 -85 -487 l-4
-165 14 92 c8 50 21 122 30 160 16 69 124 413 130 413 8 0 56 -228 70 -333 21
-168 19 -322 -11 -552 -14 -110 -29 -285 -34 -390 -6 -154 -12 -202 -30 -254
-32 -94 -76 -205 -106 -263 -14 -27 -23 -52 -21 -55 7 -7 92 101 126 160 74
130 95 242 111 602 8 180 14 239 35 325 33 133 41 262 26 420 -16 165 -43 297
-87 421 l-36 101 15 82 c66 343 104 749 92 961 -6 97 -24 235 -41 318 l-6 27
58 0 c103 0 190 62 252 178 19 36 53 78 87 106 50 43 55 51 55 88 0 27 -10 58
-27 87 -17 29 -31 76 -40 129 -7 46 -20 96 -28 112 -24 46 -71 73 -136 78 -64
5 -111 -8 -164 -43 l-35 -24 -25 39 c-30 48 -30 49 -4 103 l22 44 106 7 c114
7 240 -3 410 -35 179 -33 231 -22 231 47 0 48 -19 80 -87 145 -134 130 -291
202 -550 255 -68 13 -173 27 -235 31 -103 5 -115 8 -138 31 -41 40 -98 62
-165 61 -33 -1 -69 -3 -80 -6z m410 -643 c-3 -11 -29 -66 -56 -122 -45 -94
-49 -99 -44 -58 12 88 37 160 63 180 32 25 45 25 37 0z m-304 -249 c38 -39 37
-58 -2 -30 -46 33 -105 31 -158 -4 -53 -35 -65 -30 -16 7 80 61 133 69 176 27z
m-81 -80 c0 -11 -4 -22 -9 -25 -12 -8 -34 21 -26 34 11 17 35 11 35 -9z m40
-1 c0 -5 -4 -10 -10 -10 -5 0 -10 5 -10 10 0 6 5 10 10 10 6 0 10 -4 10 -10z
m130 -132 c-1 -56 -22 -164 -47 -235 -26 -75 -71 -163 -84 -163 -10 0 20 147
42 201 25 65 24 70 -6 34 l-25 -30 7 35 c9 53 27 91 64 137 39 48 49 52 49 21z
m-233 -54 c32 -16 88 -82 78 -93 -3 -2 -18 7 -33 22 -15 14 -53 35 -84 47 -32
12 -60 26 -63 31 -10 15 65 10 102 -7z"/>
<path d="M2738 5186 c-26 -7 -65 -25 -88 -40 -25 -16 -70 -32 -121 -42 -175
-33 -317 -94 -396 -170 -35 -33 -43 -47 -43 -77 0 -69 66 -107 183 -107 l73 0
-44 -90 c-52 -105 -50 -105 -172 -61 -140 52 -218 64 -359 59 -240 -10 -461
-96 -656 -255 -65 -52 -80 -81 -63 -119 16 -35 52 -51 150 -70 46 -9 103 -24
127 -35 55 -24 62 -19 19 14 -19 15 -69 34 -117 46 -106 27 -131 42 -131 82 0
43 77 116 170 163 41 20 127 49 190 65 111 28 230 49 220 38 -3 -2 -67 -23
-143 -46 -206 -61 -317 -124 -317 -177 0 -26 28 -27 164 -5 131 21 249 27 280
15 24 -9 19 -27 -14 -59 -46 -44 -40 -62 22 -70 71 -10 98 -38 98 -104 0 -47
2 -52 33 -68 20 -10 64 -18 119 -21 118 -6 182 15 255 81 60 56 75 53 66 -12
-9 -67 -138 -158 -254 -179 -113 -21 -293 38 -496 163 -57 35 -45 10 20 -41
162 -127 369 -205 503 -188 65 8 157 50 208 94 20 18 39 31 41 29 13 -13 23
-135 15 -189 -15 -103 -37 -152 -112 -246 -39 -49 -58 -78 -42 -64 75 64 137
128 151 155 43 82 56 236 27 316 -9 24 -17 71 -18 104 -2 33 -11 95 -21 138
-22 99 -17 216 14 307 63 185 181 379 311 511 109 111 180 133 405 124 128 -4
129 -4 75 10 -64 17 -199 35 -250 34 -19 0 -56 -6 -82 -13z m-178 -115 c0 -5
-7 -15 -16 -22 -9 -7 -35 -38 -59 -69 -35 -45 -58 -63 -131 -99 -99 -49 -167
-60 -187 -29 -29 45 51 125 172 171 116 45 221 68 221 48z m-605 -445 c28 -7
98 -32 156 -55 58 -22 111 -41 118 -41 10 0 12 -9 6 -32 -3 -18 -9 -50 -12
-70 l-6 -38 -63 59 c-105 98 -229 147 -402 158 -90 6 -110 17 -47 26 68 9 203
6 250 -7z"/>
<path d="M2080 5159 c-103 -13 -247 -53 -347 -96 -194 -84 -385 -244 -509
-428 -76 -113 -86 -132 -38 -75 161 195 386 360 589 433 146 52 521 126 635
126 25 -1 65 6 90 13 l45 14 -91 12 c-101 13 -275 14 -374 1z"/>
<path d="M3350 5061 c-43 -9 -82 -29 -76 -40 3 -4 -11 -13 -30 -20 -29 -10
-33 -15 -23 -27 9 -11 7 -14 -9 -14 -12 0 -25 -6 -29 -13 -4 -6 -20 -18 -35
-26 -16 -8 -28 -19 -28 -24 0 -5 -11 -18 -25 -29 -14 -11 -30 -29 -36 -40 -10
-18 -7 -18 23 5 18 14 56 31 83 38 72 17 105 30 100 39 -13 21 9 40 46 40 30
0 37 3 33 15 -4 11 1 15 17 16 22 0 23 1 4 9 -22 9 -18 12 45 29 l35 9 -43 1
c-48 1 -50 21 -2 21 16 0 32 5 35 10 7 11 -31 12 -85 1z"/>
<path d="M3535 4706 c-52 -24 -112 -83 -139 -135 -23 -44 -19 -52 5 -11 52 87
132 145 218 160 l46 8 -40 1 c-23 0 -61 -9 -90 -23z"/>
<path d="M3520 4597 c-19 -7 -44 -19 -55 -26 l-20 -13 20 8 c92 32 135 36 220
18 11 -2 7 3 -10 11 -37 17 -108 18 -155 2z"/>
<path d="M4255 4493 c-70 -17 -114 -88 -178 -288 -48 -148 -52 -174 -34 -218
45 -106 186 -89 238 29 11 24 33 53 49 64 26 18 30 28 30 66 0 40 3 47 35 65
41 25 43 37 14 122 -41 123 -91 175 -154 160z"/>
<path d="M2297 4435 c-4 -32 -2 -71 8 -110 8 -33 15 -80 16 -105 1 -38 2 -41
9 -20 12 37 11 110 -1 155 -6 22 -14 60 -18 85 l-7 45 -7 -50z"/>
<path d="M3449 4395 c-43 -23 -119 -97 -119 -117 0 -5 -4 -6 -10 -3 -5 3 -10
-1 -10 -10 0 -9 -4 -13 -10 -10 -5 3 -10 1 -10 -4 0 -6 -7 -11 -15 -11 -24 0
-18 -14 25 -61 32 -36 39 -40 40 -23 0 11 10 49 22 85 17 50 34 76 79 122 32
31 57 57 56 57 -1 -1 -23 -12 -48 -25z"/>
<path d="M1039 4159 c-44 -90 -53 -130 -53 -219 1 -99 26 -183 81 -273 l35
-59 -25 -46 c-22 -40 -34 -50 -89 -72 -35 -15 -85 -39 -113 -54 -39 -21 -44
-26 -20 -21 17 4 61 13 98 20 68 13 69 13 64 -8 -25 -106 -46 -210 -51 -247
-5 -39 -1 -34 29 43 64 163 113 246 192 326 l73 73 -45 50 c-88 98 -132 230
-144 427 l-6 115 -26 -55z"/>
<path d="M2137 3800 c-112 -120 -222 -317 -292 -520 -39 -113 -99 -329 -93
-335 2 -2 20 53 41 122 92 310 239 607 368 748 23 25 39 45 36 45 -3 0 -30
-27 -60 -60z"/>
<path d="M1910 3774 c-69 -65 -115 -129 -184 -255 -56 -103 -61 -130 -8 -38
44 74 103 156 156 214 l37 40 -45 -85 c-25 -47 -59 -119 -76 -160 -32 -77 -91
-298 -89 -335 0 -11 7 5 15 35 37 140 105 318 181 469 45 91 81 167 79 169 -2
1 -32 -23 -66 -54z"/>
<path d="M1571 3105 c-30 -98 -49 -216 -56 -355 -8 -157 -19 -221 -57 -333
-30 -86 -31 -94 -25 -206 10 -173 24 -212 19 -50 -4 124 -2 143 22 225 45 153
65 267 76 421 10 133 32 299 46 346 3 9 3 17 0 17 -3 0 -14 -29 -25 -65z"/>
<path d="M1691 3114 c0 -11 3 -14 6 -6 3 7 2 16 -1 19 -3 4 -6 -2 -5 -13z"/>
<path d="M1741 2914 c0 -11 3 -14 6 -6 3 7 2 16 -1 19 -3 4 -6 -2 -5 -13z"/>
<path d="M3961 2804 c0 -11 3 -14 6 -6 3 7 2 16 -1 19 -3 4 -6 -2 -5 -13z"/>
<path d="M1854 2670 c3 -77 12 -128 31 -190 26 -80 27 -95 25 -265 -2 -278 33
-520 105 -711 27 -72 101 -224 117 -239 6 -5 -4 18 -21 53 -44 87 -96 247
-120 367 -23 114 -41 339 -40 500 l0 110 24 -60 c29 -74 43 -153 60 -342 l14
-148 -4 180 c-4 204 -15 266 -73 411 -45 112 -75 214 -103 348 l-19 91 4 -105z"/>
<path d="M3881 2754 c0 -11 3 -14 6 -6 3 7 2 16 -1 19 -3 4 -6 -2 -5 -13z"/>
<path d="M1964 2595 c4 -16 32 -95 63 -175 30 -80 66 -172 78 -206 36 -93 56
-206 65 -349 l7 -130 1 153 c3 224 -20 313 -153 602 -63 136 -71 151 -61 105z"/>
<path d="M1686 2508 c-45 -198 -46 -427 -3 -560 28 -87 81 -186 127 -238 l31
-35 -26 43 c-38 63 -82 177 -107 279 -18 74 -22 116 -22 268 0 107 5 206 12
244 18 88 8 88 -12 -1z"/>
<path d="M2175 2525 c3 -10 19 -60 35 -110 60 -186 71 -248 80 -470 5 -116 15
-244 24 -285 16 -79 57 -212 63 -206 2 1 -1 34 -6 72 -27 190 -54 539 -64 814
-2 49 -4 34 -5 -43 -2 -117 -13 -146 -26 -66 -8 47 -69 239 -91 284 -9 17 -13
21 -10 10z"/>
<path d="M2416 2375 c-25 -293 53 -645 260 -1181 41 -105 74 -197 74 -205 0
-42 34 -121 70 -161 72 -83 166 -105 220 -53 46 44 62 104 66 245 2 104 1 115
-6 62 -36 -253 -154 -321 -248 -144 -34 63 -81 229 -83 286 0 31 0 31 -10 6
-10 -23 -13 -18 -38 60 -15 47 -51 137 -79 200 -107 241 -169 510 -211 910
l-7 75 -8 -100z"/>
<path d="M3471 1847 c-24 -67 -85 -244 -136 -394 l-92 -272 -7 257 c-4 141
-13 313 -20 382 l-13 125 -3 -170 c-2 -93 -4 -287 -5 -430 -2 -230 -16 -514
-30 -615 -4 -25 -3 -31 4 -19 12 18 51 206 51 243 0 28 10 58 85 251 56 144
96 278 131 432 14 62 39 161 55 220 16 58 28 107 27 108 -2 2 -23 -51 -47
-118z"/>
<path d="M2762 1540 c0 -14 2 -19 5 -12 2 6 2 18 0 25 -3 6 -5 1 -5 -13z"/>
</g>
</svg>
