<?xml version="1.0" standalone="no"?>
<!DOCTYPE svg PUBLIC "-//W3C//DTD SVG 20010904//EN"
 "http://www.w3.org/TR/2001/REC-SVG-20010904/DTD/svg10.dtd">
<svg version="1.0" xmlns="http://www.w3.org/2000/svg"
 width="626.000000pt" height="626.000000pt" viewBox="0 0 626.000000 626.000000"
 preserveAspectRatio="xMidYMid meet">

<g transform="translate(0.000000,626.000000) scale(0.100000,-0.100000)"
fill="#000000" stroke="none">
<path d="M1585 5204 c-95 -41 -187 -71 -253 -84 -61 -12 -61 -12 -91 17 -66
67 -173 89 -277 58 -32 -10 -90 -19 -129 -20 -89 -2 -139 -27 -219 -109 -68
-70 -106 -143 -106 -203 l0 -41 -74 5 c-128 10 -299 -48 -320 -109 -14 -39 13
-74 66 -89 24 -6 72 -24 108 -39 36 -16 79 -32 95 -35 57 -12 57 -12 38 -42
-9 -16 -31 -46 -47 -67 -43 -56 -2 -32 57 34 61 68 85 137 101 290 11 99 19
137 40 179 34 67 99 132 165 165 51 26 111 35 111 16 0 -5 -5 -10 -12 -10 -6
0 -9 -2 -6 -5 3 -3 31 7 64 21 78 35 186 44 249 19 65 -24 105 -61 105 -94 0
-15 14 -56 31 -90 26 -52 30 -70 25 -104 -3 -23 -3 -37 2 -30 14 22 64 42 82
33 25 -14 62 -106 67 -171 l6 -57 -53 -56 c-29 -30 -61 -58 -71 -61 -52 -17
-89 31 -90 117 l0 53 -20 -75 c-13 -50 -21 -118 -23 -205 -2 -72 -11 -165 -20
-209 -33 -151 4 -90 55 92 16 56 29 116 29 132 0 17 4 30 9 30 19 0 26 -69 25
-235 -1 -93 0 -161 2 -150 3 11 17 94 32 185 l28 164 18 -84 c35 -171 41 -199
50 -207 9 -8 2 163 -12 312 -8 79 -8 81 21 114 33 39 47 71 47 111 0 27 5 31
52 45 28 8 59 15 67 15 9 0 28 15 43 34 68 85 248 174 409 202 220 38 418 -8
592 -140 135 -101 182 -207 182 -407 0 -136 -3 -146 -58 -180 l-29 -17 74 -16
c129 -27 556 -61 768 -60 183 0 207 3 390 38 380 73 413 78 600 78 399 1 624
-73 806 -263 160 -169 225 -314 300 -676 73 -349 54 -548 -93 -983 -81 -238
-84 -349 -11 -500 40 -84 47 -149 37 -350 -4 -91 -10 -274 -12 -407 l-3 -243
48 0 c26 0 48 1 48 3 0 1 -9 65 -20 142 -22 154 -29 505 -10 505 6 0 10 -5 10
-10 0 -6 20 -30 43 -53 24 -23 46 -49 49 -57 4 -12 10 -10 26 10 12 14 22 34
22 45 0 11 7 29 15 39 10 13 15 43 15 81 0 49 -6 72 -27 111 l-28 49 1 235 c1
129 3 348 5 485 3 151 -1 299 -8 375 -7 69 -17 207 -23 308 -30 538 -233 920
-580 1093 -140 69 -364 119 -534 119 -125 0 -313 -21 -545 -60 -432 -72 -573
-77 -966 -36 -148 16 -271 30 -272 30 -1 1 7 28 18 60 27 84 27 235 -2 310
-41 110 -145 239 -249 309 -30 21 -91 49 -135 64 -186 61 -548 17 -735 -90
-30 -17 -84 -59 -119 -93 -55 -54 -70 -63 -112 -69 -47 -7 -49 -6 -49 17 0 14
-11 47 -25 74 -14 27 -25 50 -25 51 0 0 20 13 44 27 75 44 171 146 189 201 21
60 21 79 1 99 -20 20 -18 20 -89 -10z m41 -38 c9 -25 -25 -74 -79 -115 -69
-52 -110 -69 -190 -77 l-65 -7 -16 53 c-9 30 -15 54 -13 55 1 1 37 7 80 14 48
7 115 27 170 50 107 46 106 45 113 27z m-1366 -461 c27 -14 63 -25 79 -25 20
0 34 -7 41 -20 6 -10 26 -22 45 -26 41 -7 46 -13 38 -44 -6 -21 -10 -22 -58
-17 -29 3 -79 19 -111 35 -33 17 -77 35 -99 41 -51 14 -68 26 -63 42 3 10 41
29 76 38 1 1 25 -10 52 -24z m5523 -2190 c1 -66 -5 -201 -12 -300 -7 -99 -12
-257 -10 -351 4 -167 5 -172 32 -210 22 -32 27 -51 27 -97 0 -31 -4 -57 -10
-57 -5 0 -10 -9 -10 -20 0 -11 -4 -20 -10 -20 -5 0 -10 -9 -10 -20 0 -11 -4
-20 -9 -20 -14 0 -41 76 -41 115 0 31 3 35 25 35 21 0 25 5 27 30 0 17 1 36 2
43 1 6 -9 13 -22 15 -42 6 -43 24 -32 365 6 185 8 373 3 442 -7 105 -5 130 12
195 l20 75 8 -50 c4 -27 9 -104 10 -170z m-78 -369 c-6 -351 -14 -460 -29
-416 -5 14 -28 75 -52 137 -64 163 -62 221 23 480 26 78 51 139 56 136 5 -3 6
-145 2 -337z"/>
<path d="M1204 4961 c5 -7 5 -24 1 -38 -4 -19 -11 -24 -26 -20 -11 3 -19 2
-17 -1 2 -4 12 -24 21 -44 20 -43 32 -50 23 -14 -3 14 -2 28 4 31 14 9 13 82
-2 91 -7 4 -8 3 -4 -5z"/>
<path d="M974 4926 c-44 -20 -74 -66 -81 -128 -3 -29 -14 -68 -24 -86 -11 -18
-19 -35 -19 -38 0 -8 48 -4 75 6 22 9 32 5 65 -21 21 -17 54 -34 72 -38 30 -7
33 -10 32 -44 -1 -41 13 -48 39 -19 18 20 56 101 57 120 0 21 -35 13 -60 -13
-27 -29 -40 -31 -80 -10 -38 20 -57 53 -35 61 9 4 24 -1 34 -10 46 -42 131 9
131 78 0 19 -5 38 -10 41 -7 4 -9 -2 -5 -18 7 -26 -9 -67 -25 -67 -6 0 -10 6
-10 13 0 20 -33 47 -58 47 -12 0 -37 -14 -57 -31 -19 -17 -35 -27 -35 -21 0
17 91 112 108 113 11 0 12 3 5 6 -20 8 -67 -32 -108 -92 -38 -54 -55 -67 -55
-42 0 6 -5 4 -11 -5 -14 -25 -33 -23 -19 1 5 11 10 35 10 53 1 45 33 114 61
129 12 6 45 15 73 19 l51 8 -45 0 c-25 1 -59 -5 -76 -12z m96 -166 c0 -11 -4
-20 -9 -20 -14 0 -23 18 -16 30 10 17 25 11 25 -10z"/>
<path d="M995 4861 c-32 -13 -54 -44 -60 -82 -5 -33 -4 -33 6 5 8 26 22 44 45
58 19 11 34 22 34 24 0 5 0 5 -25 -5z"/>
<path d="M1313 4783 c-8 -21 -17 -73 -19 -115 -3 -72 -2 -78 16 -78 25 0 40
29 40 80 0 23 7 57 16 75 20 43 15 69 -14 73 -18 3 -26 -4 -39 -35z"/>
<path d="M334 4343 c-17 -2 -42 -15 -55 -29 -21 -23 -24 -35 -24 -110 0 -112
10 -123 129 -133 93 -9 129 -24 79 -35 -15 -4 -43 -2 -60 3 -38 11 -43 -1 -11
-23 15 -11 46 -16 96 -16 108 0 125 -12 178 -128 82 -175 152 -346 168 -409
24 -91 50 -146 90 -191 l36 -40 10 -143 c12 -199 40 -309 89 -364 12 -13 20
-42 24 -85 5 -75 40 -160 85 -212 23 -26 36 -54 47 -107 8 -40 20 -82 26 -93
6 -12 11 -44 10 -72 -3 -127 50 -206 138 -206 44 0 48 -2 59 -34 33 -89 156
-180 262 -193 l49 -6 10 -51 c6 -28 15 -102 21 -165 8 -94 15 -126 40 -177 16
-34 35 -86 41 -116 15 -68 6 -213 -19 -301 l-19 -67 32 0 33 0 12 101 c16 130
2 259 -40 384 -23 68 -34 127 -45 240 -8 83 -15 153 -15 158 0 4 8 8 18 8 9 1
-13 5 -49 9 -112 13 -206 68 -245 142 -20 38 -17 67 9 102 49 65 59 142 31
237 -19 63 -15 173 11 282 16 69 13 118 -14 202 -8 25 -9 18 -10 -43 -1 -40
-10 -114 -22 -165 -18 -79 -20 -110 -14 -224 5 -109 3 -137 -9 -162 -14 -26
-51 -61 -66 -61 -7 0 -5 602 3 750 l7 125 -14 -85 c-28 -176 -37 -310 -34
-465 l3 -160 -30 -54 c-50 -91 -83 -78 -89 35 -3 46 -11 85 -25 112 -23 46
-26 74 -11 102 6 11 15 70 21 132 5 62 19 174 29 248 44 301 46 400 17 760
l-12 155 -6 -325 c-6 -334 -16 -443 -60 -629 -11 -46 -22 -131 -26 -188 -5
-88 -9 -103 -22 -101 -25 5 -59 83 -66 153 -6 54 -4 67 14 91 27 39 51 143 51
230 0 39 5 84 10 101 6 16 10 70 8 119 -3 98 -1 105 -38 -101 -10 -60 -22
-130 -25 -154 -25 -192 -125 -22 -125 213 0 94 0 96 25 102 34 8 70 57 96 130
20 52 23 88 29 324 3 146 10 274 13 285 4 11 -2 0 -14 -25 -18 -38 -23 -77
-35 -270 -14 -238 -20 -277 -57 -331 -17 -26 -31 -35 -58 -37 -50 -4 -82 25
-117 111 -30 70 -40 115 -61 279 -6 42 -17 93 -25 115 -79 211 -77 203 -70
291 4 56 2 82 -5 82 -6 0 -11 -9 -11 -20 0 -56 -49 -100 -111 -100 -45 0 -106
20 -125 41 -15 16 -14 19 5 40 29 31 26 43 -11 60 -41 18 -59 46 -38 59 8 5
24 7 35 3 37 -11 50 -8 53 14 7 50 -110 91 -214 76z"/>
<path d="M1763 3722 c-17 -37 -55 -94 -84 -127 -29 -33 -65 -80 -81 -105 -29
-45 -79 -186 -77 -218 0 -9 8 10 18 44 21 73 51 127 121 214 29 36 63 83 75
105 25 42 68 146 63 150 -2 2 -17 -27 -35 -63z"/>
<path d="M2764 2882 c-43 -56 -56 -93 -61 -189 l-6 -95 -46 -21 -46 -22 -11
-167 c-15 -212 -25 -269 -80 -453 -39 -131 -46 -168 -54 -290 -7 -123 -13
-153 -46 -245 -44 -125 -53 -227 -35 -401 17 -162 16 -159 61 -159 l38 0 -8
33 c-16 60 -40 244 -40 310 0 47 10 97 35 176 55 178 65 225 75 359 11 155 37
256 97 385 53 111 36 104 201 87 210 -22 364 -106 457 -249 48 -75 70 -96 138
-135 59 -34 74 -56 82 -129 9 -67 30 -99 68 -99 41 0 69 23 122 102 125 185
301 304 682 461 81 33 154 63 161 66 7 3 12 -3 12 -18 0 -36 47 -129 83 -167
38 -40 108 -77 161 -88 35 -6 41 -12 63 -63 54 -124 91 -190 156 -281 138
-192 163 -285 154 -567 l-5 -183 44 0 44 0 0 149 c0 273 -26 370 -159 589
-157 260 -191 335 -191 422 0 64 18 79 62 53 46 -27 92 -108 117 -210 29 -115
74 -221 114 -269 23 -28 37 -58 46 -103 16 -81 39 -127 95 -190 31 -34 47 -64
56 -102 15 -60 18 -218 6 -292 l-7 -47 30 0 c28 0 30 3 37 47 10 66 -3 253
-22 310 -9 27 -40 82 -69 121 -45 62 -57 86 -74 161 -12 49 -21 94 -21 100 0
6 -18 35 -41 63 -48 61 -63 95 -90 202 -58 231 -134 361 -261 448 -141 95
-285 139 -458 140 -127 0 -210 -14 -390 -67 -63 -19 -131 -39 -150 -44 -55
-14 -4 -13 87 4 244 42 321 42 373 -2 70 -58 24 -108 -196 -216 -225 -111
-270 -143 -353 -247 -50 -63 -81 -93 -114 -109 l-46 -22 -45 19 c-46 21 -62
40 -70 86 -7 38 -19 50 -79 80 -57 27 -102 66 -159 137 -20 26 -75 72 -122
104 -47 32 -86 62 -86 66 0 3 71 9 158 12 86 3 180 11 207 18 48 13 42 14
-135 21 -102 4 -241 16 -310 27 -69 11 -156 23 -193 27 -37 4 -69 10 -72 13
-2 4 0 25 6 47 5 21 14 109 20 194 5 85 16 194 23 243 6 48 10 87 7 86 -4 0
-15 -12 -27 -27z"/>
<path d="M2064 2423 c-7 -36 1 -241 12 -318 5 -40 5 -40 -46 -68 -35 -19 -77
-31 -133 -38 -45 -6 -83 -12 -85 -13 -1 -2 29 -13 68 -26 61 -20 77 -21 123
-12 28 6 53 9 55 8 1 -2 -14 -24 -33 -50 -22 -28 -58 -58 -93 -76 l-57 -31 53
4 c34 3 64 12 82 26 l29 21 16 -52 c22 -75 19 -176 -11 -334 -30 -157 -29
-281 1 -368 14 -37 16 -67 12 -130 -3 -44 -9 -91 -13 -104 -6 -20 -3 -22 35
-22 48 0 45 -16 27 172 -12 131 -9 247 10 376 6 39 8 43 19 28 7 -9 28 -60 46
-114 30 -88 33 -107 32 -207 0 -74 -7 -133 -20 -182 l-19 -73 27 0 c32 0 30
-4 54 175 19 141 17 164 -35 315 -48 142 -58 238 -37 360 18 105 11 168 -37
317 -42 129 -56 213 -56 351 0 103 -13 135 -26 65z"/>
</g>
</svg>
