<?xml version="1.0" standalone="no"?>
<!DOCTYPE svg PUBLIC "-//W3C//DTD SVG 20010904//EN"
 "http://www.w3.org/TR/2001/REC-SVG-20010904/DTD/svg10.dtd">
<svg version="1.0" xmlns="http://www.w3.org/2000/svg"
 width="1280.000000pt" height="923.000000pt" viewBox="0 0 1280.000000 923.000000"
 preserveAspectRatio="xMidYMid meet">
<g transform="translate(0.000000,923.000000) scale(0.100000,-0.100000)"
fill="#000000" stroke="none">
<path d="M11239 9205 c-73 -37 -119 -107 -119 -180 0 -11 31 -114 70 -229 38
-115 67 -212 65 -217 -3 -4 -2506 -841 -5563 -1859 l-5557 -1853 -50 -51 c-49
-50 -85 -125 -85 -175 0 -32 48 -133 78 -164 38 -41 96 -68 156 -74 49 -5 405
112 5610 1846 3058 1019 5564 1850 5571 1847 7 -2 39 -83 70 -178 69 -209 93
-256 148 -292 37 -24 49 -27 109 -24 48 3 75 10 95 24 56 41 923 1035 943
1082 26 58 25 72 -6 138 -32 68 -75 99 -168 119 -174 38 -1255 257 -1286 260
-23 2 -51 -4 -81 -20z"/>
<path d="M9497 6133 c-4 -3 -7 -1385 -7 -3070 l0 -3063 1270 0 1270 0 -2 3068
-3 3067 -1261 3 c-693 1 -1264 -1 -1267 -5z"/>
<path d="M6416 5094 c-3 -9 -6 -1158 -6 -2555 l0 -2539 1275 0 1275 0 0 2555
0 2555 -1269 0 c-1148 0 -1269 -2 -1275 -16z"/>
<path d="M3347 4083 c-4 -3 -7 -924 -7 -2045 l0 -2038 1270 0 1270 0 0 2045 0
2045 -1263 0 c-695 0 -1267 -3 -1270 -7z"/>
<path d="M270 1530 l0 -1530 1270 0 1270 0 0 1530 0 1530 -1270 0 -1270 0 0
-1530z"/>
</g>
</svg>
