<svg xmlns="http://www.w3.org/2000/svg" width="512.000000pt" height="512.000000pt" viewBox="0 0 512.000000 512.000000" preserveAspectRatio="xMidYMid meet"><g transform="translate(0.000000,512.000000) scale(0.100000,-0.100000)" fill="#000000" stroke="none"><path d="M4045 4231 l-380 -380 -30 25 c-50 40 -62 36 -188 -60 l-78 -59 -98 52 c-174 90 -299 109 -410 60 -37 -16 -219 -192 -887 -861 l-842 -841 -28 20 c-91 63 -204 56 -288 -19 -53 -46 -79 -105 -78 -179 0 -79 24 -117 151 -244 61 -60 111 -114 111 -120 0 -6 -31 -42 -69 -79 l-70 -69 -37 33 c-55 48 -118 73 -162 65 -44 -8 -102 -48 -164 -112 -77 -79 -94 -143 -59 -218 23 -49 682 -709 724 -724 78 -30 142 -4 239 96 108 113 114 191 23 292 l-34 37 75 75 74 74 118 -117 c128 -128 161 -148 247 -148 135 0 229 94 230 230 0 52 -5 74 -26 110 l-26 45 837 840 c633 636 842 851 859 886 56 120 28 280 -85 470 l-28 46 72 93 c78 101 85 124 51 172 l-22 30 377 377 c328 329 376 381 376 407 0 37 -36 74 -70 74 -19 0 -115 -91 -405 -379z m-912 -511 c240 -100 434 -305 517 -545 25 -73 25 -118 0 -169 -13 -28 -291 -312 -845 -866 l-825 -825 -375 375 -375 375 65 65 65 64 67 -33 c117 -57 238 -139 333 -227 53 -49 81 -60 112 -43 31 16 38 28 38 65 0 26 -11 42 -57 85 -81 74 -161 132 -281 202 l-103 61 154 154 154 154 66 -31 c89 -43 227 -135 320 -214 43 -37 88 -67 99 -67 32 0 68 39 68 72 0 21 -14 41 -55 80 -80 76 -197 161 -297 215 -48 26 -88 50 -88 53 0 3 69 74 153 158 l152 152 65 -31 c88 -41 240 -144 323 -218 75 -67 105 -76 144 -39 39 37 30 66 -41 133 -83 78 -200 162 -303 217 l-82 44 157 157 157 156 91 -48 c117 -62 168 -97 276 -188 66 -55 95 -73 117 -73 51 0 82 50 59 94 -30 58 -240 216 -377 286 l-64 32 89 90 c49 50 103 96 119 104 43 21 119 11 208 -26z m484 -22 l32 -33 -35 -47 -35 -47 -45 46 c-24 26 -44 49 -44 52 1 9 73 60 86 61 5 0 24 -15 41 -32z m-2591 -1630 c51 -38 945 -932 960 -960 45 -85 -34 -174 -118 -134 -18 9 -248 231 -511 494 l-477 477 0 47 c0 39 5 50 31 72 37 32 77 33 115 4z m246 -705 c87 -87 158 -162 158 -168 0 -6 -32 -42 -70 -80 l-70 -70 -167 168 -168 167 70 70 c38 38 74 70 80 70 5 0 81 -71 167 -157z m-259 -240 c175 -175 323 -326 329 -337 8 -15 1 -28 -48 -77 -32 -33 -63 -59 -69 -59 -14 0 -665 652 -665 666 0 12 114 124 126 124 5 0 152 -143 327 -317z"></path><path d="M4405 4044 c-22 -22 -86 -151 -143 -287 -43 -104 -46 -119 -47 -199 0 -80 2 -89 30 -129 17 -24 50 -57 74 -74 40 -28 49 -30 130 -30 80 0 92 3 136 30 33 21 57 47 79 85 57 102 41 188 -88 463 -63 136 -79 157 -121 157 -18 0 -41 -7 -50 -16z m136 -417 c24 -72 19 -107 -23 -142 -68 -57 -168 -13 -168 74 0 39 39 151 82 234 l21 42 34 -74 c19 -41 43 -101 54 -134z"></path></g></svg>